<svg width="135" height="30" viewBox="0 0 135 30" fill="none" xmlns="http://www.w3.org/2000/svg">
<g clip-path="url(#clip0_1_1362)">
<path fill-rule="evenodd" clip-rule="evenodd" d="M20.407 11.6655C20.407 14.4293 18.1485 16.6667 15.3594 16.6667C12.5751 16.6667 10.3157 14.4293 10.3157 11.6655C10.3157 8.90708 12.5751 6.66675 15.3594 6.66675C18.1485 6.66675 20.407 8.90708 20.407 11.6655Z" fill="#FA4616"/>
<path fill-rule="evenodd" clip-rule="evenodd" d="M0 23.3334H21.9767L10.9884 3.33337L0 23.3334Z" fill="#0047BB"/>
<path fill-rule="evenodd" clip-rule="evenodd" d="M13.1091 7.19141C11.4534 8.01165 10.3157 9.70818 10.3157 11.6656C10.3157 14.4294 12.5751 16.6669 15.3594 16.6669C16.2993 16.6669 17.179 16.4127 17.9322 15.97L13.1091 7.19141Z" fill="#001A72"/>
<path d="M50.6252 23.5556C48.4674 23.5556 46.666 23.0652 45.2209 22.0845C43.7955 21.1037 42.9246 19.7404 42.6079 17.9947H46.0226C46.28 18.897 46.775 19.5639 47.5074 19.9954C48.2398 20.4073 49.2989 20.6133 50.6846 20.6133C51.7733 20.6133 52.6246 20.4564 53.2382 20.1425C53.8717 19.8091 54.1883 19.3481 54.1883 18.7597C54.1883 18.3673 54.03 18.0437 53.7133 17.7887C53.4164 17.5337 53.0601 17.3473 52.6443 17.2297C52.2483 17.112 51.5951 16.9452 50.6846 16.7295C50.348 16.651 50.0908 16.5921 49.9125 16.5529C47.4776 15.9645 45.7851 15.3564 44.835 14.7287C43.8848 14.0814 43.4096 13.1104 43.4096 11.8158C43.4096 10.2073 44.0333 8.95195 45.2803 8.04964C46.5474 7.1277 48.2201 6.66675 50.2984 6.66675C52.3376 6.66675 53.9508 7.1081 55.1385 7.99079C56.3461 8.85386 57.1083 10.0504 57.4249 11.5804H54.0399C53.5649 10.2662 52.2979 9.60906 50.2392 9.60906C49.1702 9.60906 48.3288 9.77579 47.7153 10.1093C47.1015 10.4427 46.7947 10.8939 46.7947 11.4627C46.7947 11.9531 47.0421 12.316 47.537 12.5514C48.0319 12.7671 49.0711 13.0614 50.6548 13.4341C51.6843 13.6695 52.4959 13.8754 53.0897 14.0519C53.7035 14.2089 54.3368 14.4247 54.99 14.6993C55.6433 14.9739 56.1382 15.2681 56.4748 15.582C56.8114 15.8958 57.0883 16.2881 57.3061 16.7589C57.5241 17.21 57.6328 17.7495 57.6328 18.3772C57.6328 20.0445 56.9697 21.3293 55.6433 22.2316C54.3368 23.1143 52.6641 23.5556 50.6252 23.5556Z" fill="white"/>
<path d="M37.4593 6.66675H40.8139V23.3334H37.4593V20.4956C36.1531 22.5356 34.2532 23.5556 31.7595 23.5556C29.5627 23.5556 27.7519 22.771 26.327 21.2018C24.9218 19.6129 24.2192 17.5827 24.2192 15.1112C24.2192 12.6593 24.9317 10.6389 26.3566 9.05001C27.7817 7.46117 29.5726 6.66675 31.7299 6.66675C34.2236 6.66675 36.1333 7.70637 37.4593 9.78559V6.66675ZM32.472 20.3779C33.9168 20.3779 35.1141 19.8875 36.064 18.9068C37.014 17.926 37.4892 16.6608 37.4892 15.1112C37.4892 13.5812 37.014 12.3258 36.064 11.345C35.1141 10.3446 33.9168 9.84446 32.472 9.84446C31.0471 9.84446 29.8794 10.3348 28.9691 11.3156C28.0587 12.2964 27.6034 13.5616 27.6034 15.1112C27.6034 16.6608 28.0587 17.926 28.9691 18.9068C29.8794 19.8875 31.0471 20.3779 32.472 20.3779Z" fill="white"/>
<path d="M131.412 6.66675H135L124.46 30.0001H120.872L124.734 21.0745L118.181 6.66675H121.993L126.703 17.3334L131.412 6.66675Z" fill="white"/>
<path d="M115.568 19.683L116.163 22.3821C114.835 23.1645 113.278 23.5556 111.494 23.5556C109.729 23.5556 108.292 22.9983 107.182 21.8833C106.072 20.7685 105.623 19.19 105.623 17.0581V9.77785H102.483V6.66673H105.623V3.3334L108.987 2.22229V6.66673H116.163V9.77785H108.987V16.8331C108.987 19.2584 109.948 20.4751 112.089 20.4751C112.882 20.4751 114.042 20.211 115.568 19.683Z" fill="white"/>
<path d="M96.877 23.3334V6.66675H100.241V23.3334H96.877Z" fill="white"/>
<path d="M93.6448 6.66675C94.0646 6.66675 94.3945 6.69641 94.6344 6.75573V10.1661C94.2346 10.1266 93.8946 10.1068 93.6148 10.1068C91.9753 10.1068 90.6555 10.5912 89.6558 11.56C88.6561 12.509 88.1562 13.9423 88.1562 15.8601L88.1311 23.3334H84.7673L84.7925 6.66675H88.1562L88.1311 10.2223C89.1708 7.83006 91.0255 6.66675 93.6448 6.66675Z" fill="white"/>
<path d="M79.1611 23.3334V6.66675H82.5249V23.3334H79.1611Z" fill="white"/>
<path d="M82.3648 0.603173C81.9589 0.201058 81.447 0 80.8285 0C80.2295 0 79.7272 0.201058 79.3213 0.603173C78.9156 0.985184 78.7126 1.47778 78.7126 2.08095C78.7126 2.70424 78.9156 3.21693 79.3213 3.61904C79.7272 4.02116 80.2295 4.22222 80.8285 4.22222C81.447 4.22222 81.9589 4.02116 82.3648 3.61904C82.7705 3.21693 82.9734 2.70424 82.9734 2.08095C82.9734 1.47778 82.7705 0.985184 82.3648 0.603173Z" fill="white"/>
<path d="M100.081 0.603173C99.6747 0.201058 99.1628 0 98.5443 0C97.9453 0 97.443 0.201058 97.0371 0.603173C96.6314 0.985184 96.4285 1.47778 96.4285 2.08095C96.4285 2.70424 96.6314 3.21693 97.0371 3.61904C97.443 4.02116 97.9453 4.22222 98.5443 4.22222C99.1628 4.22222 99.6747 4.02116 100.081 3.61904C100.486 3.21693 100.689 2.70424 100.689 2.08095C100.689 1.47778 100.486 0.985184 100.081 0.603173Z" fill="white"/>
<path d="M69.447 6.66675C71.6043 6.66675 73.3952 7.46477 74.8203 9.06084C76.2452 10.6569 76.9577 12.6865 76.9577 15.1495C76.9577 17.6323 76.2452 19.6717 74.8203 21.2677C73.4152 22.8441 71.6142 23.6323 69.4174 23.6323C66.9435 23.6323 65.0232 22.5072 63.6974 20.4579V30.0001H60.3336L60.324 6.66675H63.6878L63.6974 9.79124C65.0232 7.70257 66.9533 6.66675 69.447 6.66675ZM68.705 20.4401C70.1299 20.4401 71.2975 19.9475 72.2078 18.9623C73.1183 17.9771 73.5735 16.7061 73.5735 15.1495C73.5735 13.5929 73.1183 12.3219 72.2078 11.3367C71.2975 10.3515 70.1299 9.85886 68.705 9.85886C67.2601 9.85886 66.0628 10.3613 65.1129 11.3663C64.163 12.3515 63.6878 13.6126 63.6878 15.1495C63.6878 16.7061 64.163 17.9771 65.1129 18.9623C66.0628 19.9475 67.2601 20.4401 68.705 20.4401Z" fill="white"/>
</g>
<defs>
<clipPath id="clip0_1_1362">
<rect width="135" height="30" fill="white"/>
</clipPath>
</defs>
</svg>
